# xmcd
#
# Track frame offsets: 
#        150
#        34704
#        60607
#        87458
#        105407
#        138018
#        154868
#        184211
#        218083
#        244012
#        279930
#
# Disc length: 3918 seconds
#
# Revision: 0
# Processed by: cddbd v1.5.2PL0 Copyright (c) Steve Scherf et al.
# Submitted via: ExactAudioCopyFreeDBPlugin 1.0
#
DISCID=8e0f4c0b
DTITLE=One Mind Brass Band - Mix It Like Gumbo
DYEAR=2013
DGENRE=New Orleans Brass Band
TTITLE0=Come On Now
TTITLE1=Come Together
TTITLE2=Eb Blues
TTITLE3=Fat Boy
TTITLE4=Here We Go
TTITLE5=Rapture
TTITLE6=Say La La
TTITLE7=Smiling Faces
TTITLE8=Spread Your Legs
TTITLE9=Too Sweet Da Bounca
TTITLE10=Back In The Day - Outro
EXTD=
EXTT0=
EXTT1=
EXTT2=
EXTT3=
EXTT4=
EXTT5=
EXTT6=
EXTT7=
EXTT8=
EXTT9=
EXTT10=
PLAYORDER=
